<svg xmlns="http://www.w3.org/2000/svg" viewBox="0 0 1400 900" role="img" aria-labelledby="t d">
    <title id="t">Dashboard de inovacao</title>
    <desc id="d">Painel futurista com graficos do agro sustentavel.</desc>
    <rect width="1400" height="900" fill="#06121f"/>
    <g stroke="#173f2a" stroke-width="2"><path d="M0 120H1400M0 240H1400M0 360H1400M0 480H1400M0 600H1400M0 720H1400"/><path d="M160 0V900M320 0V900M480 0V900M640 0V900M800 0V900M960 0V900M1120 0V900M1280 0V900"/></g>
    <rect x="120" y="120" width="500" height="270" rx="16" fill="#0b2940" stroke="#39d6ff" stroke-width="5"/>
    <rect x="720" y="120" width="560" height="270" rx="16" fill="#0b2940" stroke="#36ff91" stroke-width="5"/>
    <rect x="120" y="470" width="1160" height="270" rx="16" fill="#0b2940" stroke="#ffd166" stroke-width="5"/>
    <g fill="#36ff91"><rect x="180" y="315" width="55" height="45"/><rect x="265" y="270" width="55" height="90"/><rect x="350" y="220" width="55" height="140"/><rect x="435" y="180" width="55" height="180"/></g>
    <path d="M760 310C860 160 1000 360 1100 210C1140 150 1195 165 1240 130" fill="none" stroke="#39d6ff" stroke-width="9"/>
    <circle cx="1000" cy="605" r="90" fill="none" stroke="#36ff91" stroke-width="22" stroke-dasharray="380 180"/>
    <text x="180" y="175" fill="#f4fbff" font-family="Arial" font-size="34" font-weight="700">Big Data Rural</text>
    <text x="760" y="175" fill="#f4fbff" font-family="Arial" font-size="34" font-weight="700">IA Climática</text>
    <text x="180" y="545" fill="#f4fbff" font-family="Arial" font-size="34" font-weight="700">IoT + Sustentabilidade</text>
</svg>
